<?xml version="1.0" encoding="UTF-8"?><svg id="Layer_1" xmlns="http://www.w3.org/2000/svg" viewBox="0 0 120 120"><defs><style>.cls-1{fill:#f5f5f5;}</style></defs><path class="cls-1" d="M120,120H0V0H120V120Zm-27.09-83.74v21.1h12.53V3.97h-12.7V24.43h-20.55V3.91h-12.51V57.54c2.18,0,4.13,0,6.08,0q6.48,0,6.48-6.57v-14.71h20.68Zm-76.17,5.23c-1.12,3.56-2.24,6.9-3.17,10.29-.13,.48,.47,1.49,.99,1.78,7.47,4.13,15.38,6.01,23.84,3.93,6.69-1.65,11.41-6.95,12.31-13.24,1.04-7.27-1.66-12.69-8.07-16.2-2.48-1.36-5.14-2.39-7.68-3.65-1.74-.86-3.58-1.66-5.08-2.86-2.68-2.16-2.01-6.12,1.29-6.87,2.39-.54,5.12-.41,7.54,.14,2.7,.62,5.21,2.06,7.98,3.21,.95-3.23,1.95-6.42,2.77-9.67,.14-.55-.31-1.63-.79-1.9-7.35-4.08-19.03-5.47-26.91,.02-8.09,5.64-8.57,17.17-.87,23.36,2.24,1.8,5,2.99,7.58,4.36,2.11,1.12,4.42,1.92,6.42,3.21,1.19,.76,2.37,2.04,2.82,3.33,1.06,3.05-.9,5.42-4.45,5.7-6.02,.48-11.29-1.72-16.5-4.95Zm55.66,45.06v-11.49h21.31v-11.5H59.61v53.4h12.71v-19.35h18.34v-11.06h-18.27Zm-38.92,9.98c10.15,.07,17.36-6.63,17.58-16.34,.22-9.46-7.18-16.67-17.2-16.73-10.15-.07-17.37,6.67-17.54,16.35-.16,9.59,7.08,16.65,17.16,16.72Z"/><path class="cls-1" d="M27.41,79.93c.03-5.68,2.82-8.71,7.41-8.03,.18,.03,.35,.05,.52,.09,3.63,.84,5.46,5.61,4.22,11-.96,4.17-3.62,5.94-7.56,5.03-2.94-.68-4.62-3.62-4.59-8.09Z"/></svg>