<svg width="40" height="40" viewBox="0 0 40 40" fill="none" xmlns="http://www.w3.org/2000/svg">
<path d="M37.4333 10.0001C36.15 10.5834 34.7667 10.9667 33.3333 11.1501C34.8 10.2667 35.9333 8.86675 36.4667 7.18341C35.0833 8.01675 33.55 8.60008 31.9333 8.93342C30.6166 7.50008 28.7667 6.66675 26.6667 6.66675C22.75 6.66675 19.55 9.86675 19.55 13.8167C19.55 14.3834 19.6167 14.9334 19.7333 15.4501C13.8 15.1501 8.51665 12.3001 4.99998 7.98341C4.38332 9.03341 4.03332 10.2667 4.03332 11.5667C4.03332 14.0501 5.28332 16.2501 7.21665 17.5001C6.03332 17.5001 4.93332 17.1667 3.96665 16.6667V16.7167C3.96665 20.1834 6.43332 23.0834 9.69998 23.7334C8.6512 24.0204 7.55014 24.0604 6.48332 23.8501C6.936 25.2709 7.82255 26.5141 9.01834 27.405C10.2141 28.2958 11.6591 28.7896 13.15 28.8168C10.6227 30.8175 7.48998 31.8989 4.26665 31.8834C3.69998 31.8834 3.13332 31.8501 2.56665 31.7834C5.73332 33.8167 9.49998 35.0001 13.5333 35.0001C26.6667 35.0001 33.8833 24.1001 33.8833 14.6501C33.8833 14.3334 33.8833 14.0334 33.8666 13.7167C35.2666 12.7167 36.4666 11.4501 37.4333 10.0001V10.0001Z" fill="#F5F5F5"/>
</svg>
